<svg id="_02" data-name="02" xmlns="http://www.w3.org/2000/svg" width="148" height="70" viewBox="0 0 148 70">
  <path id="Shape" d="M39.4,0,48,5.886,46.187,8.38,39.4,3.735,31.7,9,24,3.735,16.3,9l-7.7-5.265L1.813,8.38,0,5.885,8.606,0l7.7,5.265L24,0l7.7,5.265Z" transform="translate(66 57)" fill="#e8eaf3"/>
  <path id="Shape-2" data-name="Shape" d="M0,3V0H12V3Z" transform="translate(32 5)" fill="#e8eaf3"/>
  <path id="Shape-3" data-name="Shape" d="M0,0H3V12H0Z" transform="translate(37)" fill="#e8eaf3"/>
  <path id="Shape-4" data-name="Shape" d="M0,3V0H30V3Z" transform="translate(18 30)" fill="#e8eaf3"/>
  <path id="Shape-5" data-name="Shape" d="M0,3V0H12V3Z" transform="translate(5 57)" fill="#e8eaf3"/>
  <path id="Shape-6" data-name="Shape" d="M0,0H3V12H0Z" transform="translate(10 53)" fill="#e8eaf3"/>
  <path id="Shape-7" data-name="Shape" d="M0,3V0H12V3Z" transform="translate(0 61)" fill="#030404"/>
  <path id="Shape-8" data-name="Shape" d="M0,0H3V12H0Z" transform="translate(5 57)" fill="#030404"/>
  <path id="Shape-9" data-name="Shape" d="M39.4,0,48,5.886,46.187,8.38,39.4,3.735,31.7,9,24,3.735,16.305,9l-7.7-5.265L1.813,8.38,0,5.885,8.606,0l7.7,5.265L24,0l7.7,5.265Z" transform="translate(61 61)" fill="#030404"/>
  <path id="Shape-10" data-name="Shape" d="M0,3V0H12V3Z" transform="translate(27 8)" fill="#030404"/>
  <path id="Shape-11" data-name="Shape" d="M0,0H3V12H0Z" transform="translate(31 4)" fill="#030404"/>
  <path id="Shape-12" data-name="Shape" d="M0,3V0H30V3Z" transform="translate(12 33)" fill="#030404"/>
  <path id="Shape-13" data-name="Shape" d="M0,0,7.866,16,18,1.289Z" transform="translate(85 19)" fill="#444bf8"/>
  <path id="Shape-14" data-name="Shape" d="M10.051,21v0L0,0,23,1.693,10.052,21ZM5.159,3.542,10.5,14.709,17.389,4.442l-12.23-.9Z" transform="translate(76 19)" fill="#030404"/>
  <path id="Shape-15" data-name="Shape" d="M15,7.5A7.5,7.5,0,1,1,7.5,0,7.5,7.5,0,0,1,15,7.5Z" transform="translate(133 36)" fill="#444bf8"/>
  <path id="Shape-16" data-name="Shape" d="M9,18a9,9,0,1,1,9-9A9.01,9.01,0,0,1,9,18ZM9,3.228A5.772,5.772,0,1,0,14.772,9,5.778,5.778,0,0,0,9,3.228Z" transform="translate(128 39)" fill="#030404"/>
</svg>
