<svg id="_01" data-name="01" xmlns="http://www.w3.org/2000/svg" width="96" height="87" viewBox="0 0 96 87">
  <path id="Shape" d="M39.4,0,48,5.886,46.187,8.38,39.4,3.735,31.7,9,24,3.735,16.305,9l-7.7-5.265L1.813,8.38,0,5.886,8.606,0l7.7,5.265L24,0l7.7,5.265Z" transform="translate(48 18)" fill="#e8eaf3"/>
  <path id="Shape-2" data-name="Shape" d="M39.4,0,48,5.886,46.187,8.38,39.4,3.735,31.7,9,24,3.735,16.305,9l-7.7-5.265L1.813,8.38,0,5.885,8.606,0l7.7,5.265L24,0l7.7,5.265Z" transform="translate(42 22)" fill="#030404"/>
  <path id="Shape-3" data-name="Shape" d="M15,7.5A7.5,7.5,0,1,1,7.5,0,7.5,7.5,0,0,1,15,7.5Z" transform="translate(50 67)" fill="#444bf8"/>
  <path id="Shape-4" data-name="Shape" d="M15,7.5A7.5,7.5,0,1,1,7.5,0,7.5,7.5,0,0,1,15,7.5Z" transform="translate(6)" fill="#444bf8"/>
  <path id="Shape-5" data-name="Shape" d="M9,18a9,9,0,1,1,9-9A9.01,9.01,0,0,1,9,18ZM9,3.228A5.772,5.772,0,1,0,14.772,9,5.778,5.778,0,0,0,9,3.228Z" transform="translate(44 69)" fill="#030404"/>
  <path id="Shape-6" data-name="Shape" d="M9,18a9,9,0,1,1,9-9A9.01,9.01,0,0,1,9,18ZM9,3.228A5.772,5.772,0,1,0,14.772,9,5.778,5.778,0,0,0,9,3.228Z" transform="translate(0 2)" fill="#030404"/>
</svg>
