<svg id="_03" data-name="03" xmlns="http://www.w3.org/2000/svg" width="150" height="139" viewBox="0 0 150 139">
  <path id="Shape" d="M0,3V0H46V3Z" transform="translate(78 82)" fill="#e8eaf3"/>
  <path id="Shape-2" data-name="Shape" d="M39.4,0,48,5.886,46.187,8.38,39.4,3.735,31.7,9,24,3.735,16.305,9l-7.7-5.265L1.813,8.38,0,5.885,8.606,0l7.7,5.265L24,0l7.7,5.265Z" transform="translate(48 44)" fill="#e8eaf3"/>
  <path id="Shape-3" data-name="Shape" d="M0,3V0H12V3Z" transform="translate(138 92)" fill="#e8eaf3"/>
  <path id="Shape-4" data-name="Shape" d="M0,0H3V12H0Z" transform="translate(142 87)" fill="#e8eaf3"/>
  <path id="Shape-5" data-name="Shape" d="M0,3V0H12V3Z" transform="translate(6 31)" fill="#e8eaf3"/>
  <path id="Shape-6" data-name="Shape" d="M0,0H3V12H0Z" transform="translate(11 27)" fill="#e8eaf3"/>
  <path id="Shape-7" data-name="Shape" d="M0,3V0H46V3Z" transform="translate(72 86)" fill="#030404"/>
  <path id="Shape-8" data-name="Shape" d="M39.4,0,48,5.886,46.187,8.38,39.4,3.735,31.7,9,24,3.735,16.305,9l-7.7-5.265L1.813,8.38,0,5.886,8.606,0l7.7,5.265L24,0l7.7,5.265Z" transform="translate(41 48)" fill="#030404"/>
  <path id="Shape-9" data-name="Shape" d="M0,3V0H12V3Z" transform="translate(132 96)" fill="#030404"/>
  <path id="Shape-10" data-name="Shape" d="M0,0H3V12H0Z" transform="translate(137 91)" fill="#030404"/>
  <path id="Shape-11" data-name="Shape" d="M0,3V0H12V3Z" transform="translate(0 35)" fill="#030404"/>
  <path id="Shape-12" data-name="Shape" d="M0,0H3V12H0Z" transform="translate(5 31)" fill="#030404"/>
  <path id="Shape-13" data-name="Shape" d="M0,10.382,16,18,14.442,0Z" transform="translate(40)" fill="#444bf8"/>
  <path id="Shape-14" data-name="Shape" d="M0,0,7.867,16,18,1.289Z" transform="translate(84 116)" fill="#444bf8"/>
  <path id="Shape-15" data-name="Shape" d="M21,23h0L0,13.266,18.955,0,21,23ZM16.315,5.66,6.236,12.714,17.4,17.891Z" transform="translate(30)" fill="#030404"/>
  <path id="Shape-16" data-name="Shape" d="M10.051,21v0L0,0,23,1.692,10.052,21ZM5.159,3.541,10.5,14.709,17.389,4.442l-12.23-.9Z" transform="translate(75 118)" fill="#030404"/>
</svg>
