<svg id="_04" data-name="04" xmlns="http://www.w3.org/2000/svg" width="58" height="101" viewBox="0 0 58 101">
  <path id="Shape" d="M0,3V0H12V3Z" transform="translate(46 89)" fill="#e8eaf3"/>
  <path id="Shape-2" data-name="Shape" d="M0,0H3V12H0Z" transform="translate(50 84)" fill="#e8eaf3"/>
  <path id="Shape-3" data-name="Shape" d="M0,3V0H12V3Z" transform="translate(27 5)" fill="#e8eaf3"/>
  <path id="Shape-4" data-name="Shape" d="M0,0H3V12H0Z" transform="translate(32)" fill="#e8eaf3"/>
  <path id="Shape-5" data-name="Shape" d="M0,3V0H12V3Z" transform="translate(40 93)" fill="#030404"/>
  <path id="Shape-6" data-name="Shape" d="M0,0H3V12H0Z" transform="translate(45 89)" fill="#030404"/>
  <path id="Shape-7" data-name="Shape" d="M0,3V0H12V3Z" transform="translate(21 9)" fill="#030404"/>
  <path id="Shape-8" data-name="Shape" d="M0,0H3V12H0Z" transform="translate(26 4)" fill="#030404"/>
  <path id="Shape-9" data-name="Shape" d="M15,7.5A7.5,7.5,0,1,1,7.5,0,7.5,7.5,0,0,1,15,7.5Z" transform="translate(7 55)" fill="#444bf8"/>
  <path id="Shape-10" data-name="Shape" d="M9,18a9,9,0,1,1,9-9A9.01,9.01,0,0,1,9,18ZM9,3.228A5.772,5.772,0,1,0,14.772,9,5.778,5.778,0,0,0,9,3.228Z" transform="translate(0 58)" fill="#030404"/>
</svg>
