<svg xmlns="http://www.w3.org/2000/svg" width="141.17" height="13.148" viewBox="0 0 141.17 13.148">
  <g id="awesome-logo-dark" transform="translate(2.026 -1.027)">
    <path id="AWESOME" d="M8.235-2.391H4.008L3.27,0h-3.3L4.667-12.8h2.9L12.3,0H8.982ZM4.746-4.772H7.5L6.117-9.211Zm22.553,0L28.767-12.8h3.059L29.109,0h-3.2L24.2-7.295,22.518,0h-3.19L16.6-12.8H19.67l1.468,8.024L22.9-12.8h2.619Zm18.167-.65H40.614v3.05h5.73V0H37.529V-12.8h8.833v2.382H40.614v2.7h4.852ZM58.7-3.4a1.268,1.268,0,0,0-.479-1.055,5.954,5.954,0,0,0-1.683-.782,16.147,16.147,0,0,1-1.969-.782q-2.487-1.222-2.487-3.357a3.011,3.011,0,0,1,.62-1.876,4.008,4.008,0,0,1,1.753-1.266,6.823,6.823,0,0,1,2.549-.453,5.969,5.969,0,0,1,2.474.492,3.917,3.917,0,0,1,1.7,1.4A3.661,3.661,0,0,1,61.787-9H58.711a1.547,1.547,0,0,0-.479-1.213,1.867,1.867,0,0,0-1.3-.431,2.106,2.106,0,0,0-1.305.365,1.119,1.119,0,0,0-.479.927,1.127,1.127,0,0,0,.527.892,6.65,6.65,0,0,0,1.854.826,11.36,11.36,0,0,1,2.18.918,3.663,3.663,0,0,1,2.074,3.3A3.125,3.125,0,0,1,60.521-.782,5.629,5.629,0,0,1,57.05.176a6.888,6.888,0,0,1-2.817-.558,4.247,4.247,0,0,1-1.9-1.529A3.985,3.985,0,0,1,51.7-4.148h3.094a1.963,1.963,0,0,0,.532,1.516,2.513,2.513,0,0,0,1.727.488,1.985,1.985,0,0,0,1.208-.33A1.088,1.088,0,0,0,58.7-3.4Zm20-2.733a7.546,7.546,0,0,1-.694,3.313A5.132,5.132,0,0,1,76.039-.6a5.494,5.494,0,0,1-2.914.778,5.572,5.572,0,0,1-2.9-.751,5.123,5.123,0,0,1-1.973-2.149,7.329,7.329,0,0,1-.743-3.208v-.721a7.58,7.58,0,0,1,.69-3.318,5.119,5.119,0,0,1,1.978-2.219,5.533,5.533,0,0,1,2.931-.782,5.479,5.479,0,0,1,2.9.773A5.211,5.211,0,0,1,77.99-10a7.362,7.362,0,0,1,.716,3.274Zm-3.138-.536a5.381,5.381,0,0,0-.637-2.9,2.044,2.044,0,0,0-1.824-.989q-2.32,0-2.452,3.48l-.009.94a5.535,5.535,0,0,0,.624,2.892,2.041,2.041,0,0,0,1.854,1.011,2.016,2.016,0,0,0,1.8-.993,5.383,5.383,0,0,0,.642-2.856ZM88.849-12.8l2.856,8.9,2.848-8.9h4.061V0H95.52V-2.988l.3-6.117L92.725,0H90.686l-3.1-9.114.3,6.126V0H84.8V-12.8ZM113.01-5.423h-4.852v3.05h5.73V0h-8.815V-12.8h8.833v2.382h-5.748v2.7h4.852Z" transform="translate(-2 14)" fill="#1b1e24" opacity="0.9"/>
    <path id="KIT" d="M.609-5.738h.758v2.8l2.8-2.8H5.238L2.852-3.426,5.3,0H4.293L2.285-2.879,1.367-2V0H.609Zm7.912,0h.785V0H8.521Zm8.623,0v.684H15.21V0h-.789V-5.055H12.488v-.684Z" transform="translate(122 7)" fill="#1b1e24"/>
  </g>
</svg>
