<svg id="cards" xmlns="http://www.w3.org/2000/svg" xmlns:xlink="http://www.w3.org/1999/xlink" width="16" height="16.008" viewBox="0 0 16 16.008">
  <defs>
    <linearGradient id="linear-gradient" y1="0.935" x2="1.15" y2="-0.155" gradientUnits="objectBoundingBox">
      <stop offset="0" stop-color="#444bf8"/>
      <stop offset="1" stop-color="#009bc9"/>
    </linearGradient>
  </defs>
  <rect id="Rectangle-path" width="10" height="12" rx="1" fill="url(#linear-gradient)"/>
  <path id="A" d="M1.53,6.329H0L2.039,0H3.912L5.938,6.327H4.306L3.9,4.877H1.942L1.53,6.328ZM2.9,1.372l-.672,2.4h1.4l-.658-2.4H2.9Z" transform="translate(2.062 3)" fill="#fff" opacity="0.8"/>
  <path id="Shape" d="M9.43.375,6.43,0,6.182,1.984l2.007.251-1,7.938L.248,9.3,0,11.29l7.938,1a1.066,1.066,0,0,0,.125.008,1,1,0,0,0,.992-.876L10.3,1.49A1,1,0,0,0,9.43.374Z" transform="translate(5.694 3.71)" fill="#c4cdd5"/>
</svg>
